# xmcd
#
# Track frame offsets:
#  150
#  14044
#  27843
#  42103
#  57817
#  68354
#  88879
#  102500
#  118089
#  135383
#  153893
#  169613
#  189007
#  205149
#
# Disc length: 3123 seconds
#
# Revision: 0
# Processed by: cddbd v1.4PL0 Copyright (c) Steve Scherf et al.
# Submitted via: AltoMP3_Maker 3.0
#
DISCID=ad0c310e
DTITLE=Jono Manson - Under The Stone
DYEAR=1900
DGENRE=
TTITLE0=This Is The Place (It Happened Here)
TTITLE1=Gaslight
TTITLE2=Under The Stone
TTITLE3=Walking Down Your Street
TTITLE4=I Don´t Wanna Know
TTITLE5=Will There Be Love?
TTITLE6=On This Ride
TTITLE7=A Dream Undone
TTITLE8=Everybody Breakdown
TTITLE9=In The Arms Of Only You
TTITLE10=Gunhill Road
TTITLE11=Magic Mirror
TTITLE12=The Night Before The Morning After
TTITLE13=I´ve Got Love
EXTD=
EXTT0=
EXTT1=
EXTT2=
EXTT3=
EXTT4=
EXTT5=
EXTT6=
EXTT7=
EXTT8=
EXTT9=
EXTT10=
EXTT11=
EXTT12=
EXTT13=
PLAYORDER=
